<svg xmlns="http://www.w3.org/2000/svg" width="198" height="194"><defs><clipPath id="a"><path transform="translate(177 474)" fill="#fff" stroke="#707070" d="M0 0h198v194H0z"/></clipPath></defs><g transform="translate(-177 -474)" clip-path="url(#a)"><path d="M441 732h-64l64-64zm-64 0h-64l64-64zm-64 0h-64l64-64zm-64 0h-64l64-64zm192-64h-64l64-64zm-64 0h-64l64-64zm-64 0h-64l64-64zm-64 0h-64l64-64zm192-64h-64l64-64zm-64 0h-64l64-64zm-64 0h-64l64-64zm-64 0h-64l64-64zm192-64h-64l64-64zm-64 0h-64l64-64zm-64 0h-64l64-64zm-64 0h-64l64-64z" fill="#fff"/></g></svg>